# xmcd
#
# Track frame offsets:
#	150
#	11827
#	22495
#	35397
#	47192
#	60540
#	73820
#	86135
#	97162
#	110765
#	123137
#	136157
#	147112
#	161602
#	175067
#	187382
#	200542
#	212542
#
# Disc length: 2994 seconds
# Revision: 0
# Processed by: cddbd v1.5.2PL0 Copyright (c) Steve Scherf et al.
# Submitted via: dBpowerAMP V12.0
#
DISCID=130bb012
DTITLE=Robert Jr. Lockwood - The Baddest New Guitar
DYEAR=1900
DGENRE=
TTITLE0=AW AW Baby
TTITLE1=Glad I Dont Have To Worry No More
TTITLE2=Down Home Child
TTITLE3=Sunny Land Special
TTITLE4=Sweet Woman From Maine
TTITLE5=Mary Lee
TTITLE6=Dust My Broom
TTITLE7=Pearly B
TTITLE8=Leaving Your Town
TTITLE9=You've Got To Stop This Mess
TTITLE10=That Woman
TTITLE11=I Believe I'll Dust My Broom
TTITLE12=Hit The Road Again
TTITLE13=Gin Drinkin' Baby
TTITLE14=Ain't Nothing but A Child
TTITLE15=Brown Skinned Woman
TTITLE16=Gonna Dig Myself A Hole
TTITLE17=Dust My Broom
EXTD=
EXTT0=
EXTT1=
EXTT2=
EXTT3=
EXTT4=
EXTT5=
EXTT6=
EXTT7=
EXTT8=
EXTT9=
EXTT10=
EXTT11=
EXTT12=
EXTT13=
EXTT14=
EXTT15=
EXTT16=
EXTT17=
PLAYORDER=
